<?xml version="1.0" standalone="no"?>
<!DOCTYPE svg PUBLIC "-//W3C//DTD SVG 1.1//EN" "http://www.w3.org/Graphics/SVG/1.1/DTD/svg11.dtd">
<svg xmlns="http://www.w3.org/2000/svg">
<metadata>Generated by Fontastic.me</metadata>
<defs>
<font id="frankly-new" horiz-adv-x="512">
<font-face font-family="frankly-new" units-per-em="512" ascent="480" descent="-32"/>
<missing-glyph horiz-adv-x="512" />

<glyph unicode="&#97;" d="M454 376c-20-6-81-13-106-11-25-2-86 5-107 11-21 7-23-16-23-16l0-209c0 0 2-82 96-113 7-2 15-3 23-3l22 0c8 0 16 1 24 3 93 30 93 113 93 113l0 209c0 0 0 22-22 16z m-194-97c0 14 12 26 27 26 14 0 26-12 26-26 0-14-12-27-26-27-15 0-27 13-27 27z m88-182c-68 0-69 69-69 69l138 0c0 0 0-69-69-69z m65 156c-14 0-26 12-26 26 0 15 12 27 26 27 14 0 26-12 26-27 0-14-12-26-26-26z m-141 223c-20-6-81-12-106-11-26-1-87 5-108 11-22 7-22-16-22-16l0-209c0 0 1-82 95-112 8-2 15-4 23-4l22 0c7 0 14 1 20 3l0 72-99 0c7 65 62 69 70 69 9 0 26-5 26-5l1 92c1 36 48 34 56 32 9-2 44-5 44-5l0 67c0 0-1 23-22 16z m-170-122c-14 0-26 12-26 26 0 15 12 27 26 27 15 0 27-12 27-27 0-14-12-26-27-26z"/>
<glyph unicode="&#98;" d="M332 245c0-42-33-75-75-75-41 0-74 33-74 75 0 41 33 74 74 74 42 0 75-33 75-74z m112 187l-74 0-42 47-140 0-43-47-74 0c-25 0-47-22-47-47l0-280c0-26 22-47 47-47l373 0c26 0 47 21 47 47l0 280c0 25-21 47-47 47z m-187-304c-64 0-116 53-116 117 0 64 52 116 116 116 64 0 117-52 117-116 0-64-52-117-117-117z"/>
<glyph unicode="&#99;" d="M435 385l-170 0 86 101c2 3 2 8-1 10-3 2-8 2-10-1l-94-110-1 0-50 51c-3 3-7 3-10 0-3-3-3-7 0-10l40-41-144 0c-31 0-55-25-55-56l0-224c0-30 24-55 55-55l354 0c31 0 56 25 56 55l0 224c-1 31-26 56-56 56z m-62-216c0-42-35-77-76-77l-156 0c-41 0-76 35-76 77l0 102c0 42 35 76 77 76l155 0c42 0 76-34 76-76l0-102z m59 1c-10 0-20 8-20 20 0 11 9 20 20 20 11 0 20-9 20-20 0-12-8-20-20-20z m0 76c-10 0-20 9-20 20 0 11 9 20 20 20 11 0 20-9 20-20 0-11-8-20-20-20z"/>
<glyph unicode="&#100;" d="M149 427c0 0 174 43 271 33l0-324c0-17-5-35-15-49-10-12-26-24-49-24-52 0-71 25-72 59 0 34 36 63 91 51l0 193c0 0-155-9-184-25l0-227c0-17-5-33-13-47-9-17-26-32-54-31-55 0-72 32-72 65 0 33 52 63 95 43z"/>
<glyph unicode="&#101;" d="M456 328c-12-2-12-34-10-46 1-12-4-18-4-18l-145-174c-10-15-30-8-30-8 0 0-125 37-149 44-23 6-54 8-57 54-2 46 34 31 34 31l160-46c28-14 46 13 46 13l176 203c20 26-10 32-10 32 0 0-184 42-205 49-22 6-29-4-29-4l-187-209c-15-14-18-60-18-60-10-68 41-85 41-85 0 0 170-51 199-59 29-9 40 5 40 5 0 0 154 183 163 197 10 13 10 25 10 25 0 0 1 34-1 44-2 11-13 13-24 12z m-240 47l8 11c0 0 5 11 34 3 31-9 113-27 113-27 0 0 21-2 8-18l-9-10c0 0-7-11-33-4-26 8-122 30-122 30 0 0-12 3 1 15z"/>
<glyph unicode="&#102;" d="M45 380l210 100c2 1 5 1 7 0l207-100c3-1 5-4 5-7 0-4-3-8-8-8l-418 0c-4 0-8 3-8 8 1 3 2 6 5 7z m37-37c0-6 6-12 13-12l325-1c6 0 12 6 12 12l0 1c0 7-6 13-12 13l-325 0c-7 0-13-6-13-13z m23-20l24 0c5 0 9-4 9-8l6-196c0-5-4-9-9-9l-34 0c-5 0-9 4-9 9l5 196c0 4 3 8 8 8z m93 0l25 0c4 0 8-4 8-8l6-196c0-5-4-9-9-9l-34 0c-5 0-8 4-8 9l4 196c1 4 4 8 8 8z m94 0l24 0c5 0 9-4 9-8l6-196c0-5-4-9-9-9l-34 0c-5 0-9 4-9 9l5 196c0 4 3 8 8 8z m91 0l24 0c5 0 9-4 9-8l6-196c0-5-4-9-9-9l-34 0c-5 0-9 4-9 9l5 196c0 4 4 8 8 8z m-364-303l479 0c2 0 4 2 4 4l0 19c0 3-2 5-4 5l-16 0c-2 0-4 2-4 4l0 18c0 3-2 5-4 5l-15 0c-2 0-4 2-4 4l-1 18c0 3-2 5-4 5l-384 0c-2 0-4-2-4-5l1-18c0-2-3-4-5-4l-16 0c-2 0-4-2-4-5l0-20c0-2-2-4-5-4l-14 0c-2 0-4-2-4-4l0-18c0-3 1-4 4-4z"/>
<glyph unicode="&#103;" d="M491 215l-12 0c-2 0-3 1-3 3l0 63c0 1 1 3 3 3l12 0c2 0 3-2 3-3l0-63c0-2-1-3-3-3z m-392-71l-36 0c-8 0-14 7-14 14l0 175c0 8 6 13 14 13l36 0c8 0 13-6 13-13l0-174c0-9-6-15-13-15z m350 0l-36 0c-8 0-13 7-13 14l0 175c0 8 6 13 13 13l36 0c8 0 14-6 14-13l0-174c0-9-6-15-14-15z m-416 71l-12 0c-2 0-3 1-3 3l0 63c0 1 1 3 3 3l12 0c2 0 3-2 3-3l0-63c0-2-1-3-3-3z m330 182l-18 0c-13 0-23-10-23-23l0-97-131 0 0 97c0 13-10 23-22 23l-18 0c-13 0-23-10-23-23l0-242c0-13 10-22 23-22l18 0c12 0 22 9 22 22l0 96 131 0 0-96c0-13 10-23 23-23l18 0c12 0 22 10 22 23l0 241c0 13-10 24-22 24z"/>
<glyph unicode="&#104;" d="M230 379c0 0-10 86 85 104 0-1 9-78-85-104z m121-329c-107 92-37 141-8 144 22 3 46-17 46-17 20 16 45 18 45 18 27 205-128 186-161 173-33-14-67 0-67 0-104 32-156-40-160-127-4-87 60-180 85-194 25-14 46-9 60-2 15 6 33 10 60 10 26 0 46-18 70-18 23 0 30 13 30 13z m81 128c-25 3-40-17-43-21-3 4-18 24-43 21-27-3-86-49 42-140 130 91 71 137 44 140z"/>
<glyph unicode="&#105;" d="M150 379c0 0 14-19 19-24l-30-26c0 0 25-74-59-89 0 0-18 3 0 18 17 15 25 46 15 56-10 11-29 17-62 0-32-17-8 25 0 32 9 7 42 37 84 8z m56-21c-24 0-43 19-43 43 0 24 19 43 43 43 24 0 44-19 44-43 0-24-20-43-44-43z m0 75c-18 0-32-14-32-32 0-18 14-32 32-32 18 0 32 14 32 32 0 18-14 32-32 32z m20-32c0-11-9-20-20-20-11 0-20 9-20 20 0 11 9 20 20 20 11 0 20-9 20-20z m37-4c0 0 5-19-19-39l72-51c0 0 3 41 31 63z m133-154c-35 0-64 29-64 64 0 36 29 64 64 64 36 0 64-28 64-64 0-35-28-64-64-64z m0 111c-26 0-48-21-48-48 0-26 22-47 48-47 26 0 48 21 48 47 0 27-22 48-48 48z m34-47c0-18-15-33-34-33-18 0-33 15-33 33 0 19 15 34 33 34 19 0 34-15 34-34z m-72-72c0 0 37-19 74 0l59-167-190 0z"/>
<glyph unicode="&#106;" d="M105 353c0 0-16 110 88 140 105 30 172-23 172-23 0 0 52-37 42-117 0 0-96-35-145-35-48 0-118 18-157 35z m-13-150c0 0-6 54 159 54 165 0 161-40 166-54 0 0 93 20 81 83 0 0-9 44-53 43 0 0-23 0-72-20-49-20-117-19-117-19 0 0-78 2-125 18-47 16-72 37-105 2-34-35-4-97 66-107z m165 15c-10 0-17-4-24-9 3 1 6 3 9 3 10 0 18-8 18-18 0-10-8-18-18-18-9 0-17 8-17 18 0 2 0 4 0 6-2-5-4-12-4-17 0-20 16-36 36-36 20 0 35 16 35 36 1 19-15 35-35 35z m123-84c-17 15-37-4-37-4 0 0-41-35-86-35-44 0-63 24-87 39-24 14-35 0-35 0-13-12-6-33 0-49 7-17 54-74 122-74 69 0 116 64 121 71 3 10 17 38 2 52z m-123-93c-69 0-101 67-101 67 106-87 197-6 197-6 0 0-27-61-96-61z"/>
<glyph unicode="&#107;" d="M20 133l175 173c3 3 7 3 10 0l41-36c3-3 7-3 10 0l147 142c3 3 3 7 1 10l-17 19c-4 4-2 11 3 11l96 21c5 1 10-4 9-9l-19-98c0-5-7-8-12-3l-17 15c-3 3-7 2-10 0l-177-175c-3-3-7-3-10 0l-47 41c-3 2-7 2-10 0l-143-141c-2-3-7-3-9 0l-22 21c-2 2-2 6 1 9z m65-24l64 62c2 2 5 0 5-2l0-103c0-2-1-3-3-3l-64 0c-2 0-3 1-3 3l0 41c1 0 1 1 1 2z m94 92l0-136c0-2 2-3 4-3l60 0c2 0 4 1 4 3l0 111-6 0-43 39c-2 2-4 2-5 0l-12-11c-2-1-2-2-2-3z m95-18l0-117c0-2 1-3 3-3l64 0c2 0 4 1 4 3l0 181c0 3-4 4-6 2l-64-63c-1-1-1-2-1-3z m96 99l64 61c2 3 6 1 6-2l0-275c0-2-1-3-3-3l-65 0c-2 0-4 1-4 3l0 211c0 2 1 3 2 5z"/>
<glyph unicode="&#108;" d="M344 495c0 0 87-18 115-68 27-52 10-81 6-89-3-9-72-122-77-316l-31 0 0 246c0 0-38-13-50-89-12-75-27-155-84-158l-141 0c0 0-43 9-43 47 0 37 54 66 111 68 0 0 11-13 36-4 25 10 116 177 158 363z"/>
<glyph unicode="&#109;" d="M215 201c0 0 111-141 170-155 0 0 62 27 106 137 0 0-6-9-165 30-3 1-7 2-10 2-19 3-78 8-101-14z m138-170c0 0-67 32-160 154 0 0-42-30-32-96 1-10 4-19 8-29 4-11 12-29 18-41 0-1 83-27 166 12z m-152 196c0 0 54 39 152 10 98-29 145-27 145-27 0 0 13 81-29 162 0 0-71 40-295-107z m-55 96l16-34c0 0 162 120 282 114 0 0-33 54-108 79 0 0-59 21-91-44-33-65-99-115-99-115z m-12 27c0 0-24 48-20 100 0 0 55 46 141 46 0 0-18-16-34-43-15-27-50-87-87-103z m-49 72c0 0 13-74 29-89 0 0-38-31-93-21 0 0 18 72 64 110z m38-118l16-31c0 0-93-69-111-107 0 0-24 77-14 118 1 0 48-19 109 20z m30-55c0 0 21-34 26-39 0 0-77-46-33-174 0 0-83 54-95 85-11 31 10 53 102 128z"/>
<glyph unicode="&#110;" d="M261 6c125 0 193 105 193 105l0 60c-2 84-130 109-130 109l-47-111 0 57 10 20-45 0 9-22 0-57-53 113c0 0-128-25-130-109l0-60c0 0 68-105 193-105m51 395c0 0-1 0-1 0-6-1-11-8-16-18 4-3 7-3 9-3 5 0 13-1 17 3 2 1 3 3 3 6 0 4-2 8-4 10-4 3-7 3-8 2z m-44 36c-2 1-5 2-8 2-2 0-4-1-6-2-4-2-6-6-6-12 0-7 6-15 13-21 7 7 11 15 12 22 1 6-3 9-5 11z m-54-37c-2 1-4 2-6 2-2 0-4-1-6-3-4-4-5-12-2-17 3-5 9-5 13-4 5 2 9 3 13 5-4 12-9 16-12 17z m46 106c-69 0-99-59-99-102 0-43 31-83 51-100l0-13 97 0 0 13c0 0 52 53 52 101 0 49-31 100-101 101z m66-129c-6-7-17-6-23-5-2 0-6 1-11 3-7-18-13-46-16-83l-8 0c4 39 9 67 16 86-7 4-15 9-22 15-7-6-16-11-24-15 11-32 14-79 15-86l-8 0c0 0-3 24-7 51-3 13-5 24-8 32-5-1-10-3-15-4-14-3-20 4-22 7-5 8-3 20 3 27 6 6 14 7 22 3 7-3 12-11 17-22 7 4 15 8 21 13-9 8-15 17-15 27 0 8 4 16 10 19 6 3 15 3 21-1 7-5 10-11 10-19-1-9-6-18-15-26 7-5 14-9 20-13 7 14 14 21 22 23l1 0c4 1 10 0 14-4 4-3 7-7 7-16 0-5-2-9-5-12z"/>
<glyph unicode="&#111;" d="M282 274c20 17 32 42 32 70 0 51-41 91-91 91-51 0-91-40-91-91 0-28 12-52 32-70-22-19-57-61-57-61 116-91 228 0 228 0-16 29-35 49-53 61z m207-199l-116 89c0 0 0 0-1 0 33 37 53 86 53 138 1 114-91 206-204 206-113 0-205-92-205-205 0-113 91-206 205-206 31 0 61 8 88 20 0-3 2-7 6-10l120-98c8-7 20-6 27 2l30 38c6 8 5 20-3 26z m-438 228c0 94 76 170 170 170 94 0 170-76 170-170 0-94-77-170-170-170-93 0-170 76-170 170z"/>
<glyph unicode="&#112;" d="M38 237l0 62 436 0 0-63-436 0z"/>
<glyph unicode="&#113;" d="M462 505l-365 0 0-495 59 0 0 247 306 0z"/>
<glyph unicode="&#114;" d="M471 223l-187 0 0-187-62 0 0 187-186 0 0 62 187 0 0 186 61 0 0-187 187 0z"/>
<glyph unicode="&#115;" d="M348 388l0-237c0-46-37-83-83-83-45 0-82 37-82 83l0 258c0 28 23 52 52 52 28 0 52-24 52-52l0-217c0-11-10-21-21-21-11 0-21 10-21 21l0 196-32 0 0-196c0-28 24-52 52-52 29 0 52 24 52 52l0 217c0 45-37 82-82 82-46 0-84-37-84-82l0-258c0-63 51-114 114-114 64 0 114 50 114 114l0 237z"/>
<glyph unicode="&#116;" d="M488 282l-359 0 165 165-42 41-236-236 236-235 41 41-164 165 358 0 0 59z"/>
<glyph unicode="&#117;" d="M235 464l0-218c-12 4-23 6-36 6-58 0-106-47-106-106 0-58 48-105 106-105 54 0 99 41 105 93l1 0 0 260 94 0 0 70z"/>
<glyph unicode="&#118;" d="M256 471c-122 0-219-98-219-219 0-120 97-219 219-219 122 0 219 99 219 219 0 121-97 219-219 219z m110-297l-31-31-79 78-79-78-31 31 79 78-79 79 31 31 79-79 79 79 31-31-79-79z"/>
<glyph unicode="&#119;" d="M424 481l-342 0c-27 0-49-22-49-49l0-342c0-27 22-49 49-49l342 0c27 0 49 22 49 49l0 342c0 27-22 49-49 49z m-220-342l-122 122 34 34 87-87 186 185 34-35z"/>
<glyph unicode="&#120;" d="M459 417l-42 42-164-166-166 166-41-42 164-165-164-165 42-42 165 165 165-165 42 42-166 165z"/>
<glyph unicode="&#121;" d="M30 127l0-96 96 0 281 282-95 96z m451 260c10 10 10 26 0 36l-59 60c-10 10-27 10-37 0l-47-47 96-96c1 0 47 47 47 47z"/>
<glyph unicode="&#122;" d="M417 411l0-323-323 0 0 323 323 0m0 46l-323 0c-26 0-46-20-46-46l0-323c0-25 20-46 46-46l323 0c25 0 46 21 46 46l0 323c0 26-21 46-46 46z"/>
<glyph unicode="&#65;" d="M102 80c0-28 23-51 51-51l205 0c29 0 52 24 52 51l0 309-308 0z m334 386l-90 0-26 26-128 0-26-26-90 0 0-51 360 0z"/>
<glyph unicode="&#66;" d="M171 146l-116 116-38-39 154-153 329 329-38 38z"/>
<glyph unicode="&#67;" d="M50 18l137 0 0 477-137 0z m273 477l0-477 136 0 0 477z"/>
<glyph unicode="&#68;" d="M179 4l252 252-252 252-59-60 192-192-192-192z"/>
<glyph unicode="&#70;" d="M256 149l134-81-36 152 119 102-156 14-61 144-61-144-156-13 119-103-36-152z"/>
<glyph unicode="&#71;" d="M374 64l-192 192 192 192-59 59-252-251 252-252z"/>
<glyph unicode="&#72;" d="M168 124l176 0 0 176 118 0-206 206-206-206 118 0z m-118-59l412 0 0-59-412 0z"/>
<glyph unicode="&#73;" d="M455 336l-114 0 0 170-170 0 0-170-114 0 199-199z m-398-256l0-57 398 0 0 57z"/>
<glyph unicode="&#74;" d="M442 370l-186-185-186 185-58-57 244-243 244 244z"/>
<glyph unicode="&#75;" d="M365 466c-42 0-83-19-109-51-26 31-67 51-109 51-74 0-133-59-133-133 0-91 82-166 206-278l35-32 35 32c126 112 208 187 208 278 0 74-59 133-133 133z m-106-376l-2-2-2 2c-116 104-191 173-191 243 0 48 36 84 85 84 37 0 73-24 86-56l44 0c13 32 50 56 87 56 48 0 84-36 84-84-1-70-76-139-191-243z"/>
<glyph unicode="&#76;" d="M256 378c-65 0-117-52-117-117 0-65 52-117 117-117 65 0 117 52 117 117 0 65-52 117-117 117z m0 117c-129 0-234-105-234-234 0-129 105-234 234-234 129 0 234 105 234 234 0 129-105 234-234 234z m0-422c-104 0-187 84-187 187 0 103 83 188 187 188 104 0 187-84 187-187 0-103-83-188-187-188z"/>
<glyph unicode="&#77;" d="M256 488c-126 0-229-103-229-229 0-127 103-229 229-229 126 0 229 102 229 229 0 126-102 229-229 229z m0-412c-101 0-183 82-183 184 0 101 82 182 183 182 101 0 183-81 183-183 0-102-81-183-183-183z"/>
<glyph unicode="&#78;" d="M415 422c-41 41-97 67-160 67-125 0-227-102-227-227 0-125 101-227 227-227 106 0 194 72 219 170l-59 0c-23-66-86-114-160-114-94 1-170 77-170 171 0 94 76 170 170 170 47 0 89-20 120-51l-91-91 198 0 0 199z"/>
<glyph unicode="&#79;" d="M381 297l0 90c0 14-11 25-25 25l-307 0c-14 0-26-11-26-25l0-255c0-15 12-26 26-26l307 0c14 0 25 11 25 26l0 89 103-102 0 281z"/>
<glyph unicode="&#81;" d="M257 280c-15 0-27-12-27-27 0-15 12-27 27-27 15 0 27 12 27 27 0 15-12 27-27 27z m0 221c-138 0-248-111-248-248 0-137 110-248 248-248 137 0 248 111 248 248 0 137-111 248-248 248z m54-303l-204-94 95 203 203 95z"/>
<glyph unicode="&#82;" d="M400 155c-18 0-35-7-48-19l-176 102c1 6 2 12 2 17 0 6-1 12-2 17l175 102c13-12 31-20 50-20 41 0 75 34 75 75 0 41-34 74-76 74-41 0-74-32-74-73 0-6 1-12 3-18l-175-102c-14 12-32 20-51 20-41 0-74-33-74-74 0-41 34-75 75-75 20 0 37 8 50 20l177-103c-2-5-2-11-2-16 0-40 32-73 72-73 40 0 72 34 72 73 0 40-33 73-73 73z"/>
<glyph unicode="&#83;" d="M206 41l0 150 99 0 0-150 125 0 0 199 74 0-249 224-248-224 75 0 0-198 124 0z"/>
<glyph unicode="&#84;" d="M449 452l-390 0c-27 0-48-22-48-49l0-291c0-27 22-49 48-49l389 0c27 0 48 22 48 49l0 291c1 27-21 49-47 49z m0-98l-195-121-195 121 0 48 195-121 195 121z"/>
<glyph unicode="&#85;" d="M256 225c-82 0-247-42-247-124l0-93 495 0 0 93c-1 82-166 124-248 124z m0 31c68 0 124 55 124 124 0 68-56 123-124 123-68 0-124-55-124-123 0-69 56-124 124-124z"/>
<glyph unicode="&#86;" d="M90 313c-30 0-54-24-54-55 0-30 24-55 54-55 30 0 55 25 55 55 0 30-25 55-55 55z m329 0c-30 0-55-25-55-55 0-30 25-55 55-55 30 0 55 25 55 55 0 30-25 55-55 55z m-164 0c-30 0-55-25-55-55 0-30 25-55 55-55 29 0 54 25 54 55 0 30-24 55-54 55z"/>
<glyph unicode="&#87;" d="M444 491l-375 0c-26 0-47-22-47-47l0-423 94 94 328 0c26 0 47 22 47 47l0 282c0 25-21 47-47 47z m-46-282l-282 0 0 47 282 0z m0 70l-282 0 0 47 282 0z m0 71l-282 0 0 47 282 0z"/>
<glyph unicode="&#88;" d="M250 4c27 0 50 22 50 50l-101 0c0-28 23-50 51-50z m163 150l0 139c0 77-53 142-126 159l0 17c0 21-17 38-37 38-21 0-38-17-38-38l0-17c-73-17-126-82-126-159l0-139-50-50 0-25 428 0 0 25z"/>
<glyph unicode="&#89;" d="M200 94c0-30 25-55 55-55 29 0 54 25 54 55 0 30-25 55-54 55-30 0-55-25-55-55z m0 328c0-29 25-54 55-54 29 0 54 25 54 54 0 30-25 55-54 55-30 0-55-24-55-55z m0-164c0-30 25-55 55-55 29 0 54 25 54 55 0 30-24 55-54 55-31 0-55-24-55-55z"/>
<glyph unicode="&#90;" d="M92 488l0-461 363 230z"/>
<glyph unicode="&#69;" d="M360 495l-216 0c-23 0-43-19-43-43l0-388c0-23 19-43 43-43l216 0c23 0 43 19 43 43l0 388c0 24-20 43-43 43z m0-388l-216 0 0 302 216 0z"/>
</font>
</defs>
</svg>
